<svg xmlns="http://www.w3.org/2000/svg" version="1" width="786" height="269" viewBox="30.763 163.285 785.52799 268.723" >
<g>
        <path d="M763.171 248.369c0-17.639-14.331-31.956-31.97-31.956-17.652 0-31.941 14.316-31.941 31.956s14.289 31.97 31.941 31.97c17.639 0 31.97-14.331 31.97-31.97m-31.97-85.084c-46.958 0-85.076 38.112-85.09 85.063h25.341c.006-32.966 26.762-59.743 59.749-59.743 33 0 59.777 26.783 59.777 59.764 0 32.986-26.762 59.756-59.75 59.762v25.34c46.979-.013 85.063-38.139 85.063-85.103 0-46.964-38.099-85.083-85.09-85.083" fill="#0e4194"/>
        <path fill="#ae0a0d" d="M486.915 399.332h30.641v30.641h-30.641z"/>
        <g fill="#3c4448">
                <path d="M51.001 385.581c10.951 9.524 25.236 16.19 38.093 16.19 14.522 0 21.664-5.714 21.664-14.998 0-9.763-8.808-12.858-22.38-18.571l-19.998-8.571c-16.19-6.429-31.427-19.761-31.427-42.378 0-25.714 23.095-46.188 55.235-46.188 17.856 0 36.664 7.142 49.997 20.474l-17.617 22.142c-10.239-7.858-20-12.381-32.38-12.381-11.905 0-19.761 5.239-19.761 14.047 0 9.524 10.237 12.856 23.808 18.332l19.761 8.095c18.808 7.619 30.712 20.237 30.712 42.141 0 25.713-21.427 48.093-58.33 48.093-20.236 0-41.664-7.619-57.615-22.38l20.238-24.047z"/>
                <path d="M183.377 332.117h-32.983v-27.615h98.952v27.615h-32.985v97.034h-32.983v-97.034h-.001z"/>
                <path d="M261.154 304.501h32.983v68.269c0 22.246 5.754 30.3 18.794 30.3 13.04 0 19.176-8.054 19.176-30.3v-68.269h31.834v64.435c0 42.572-16.109 62.515-51.01 62.515-34.901 0-51.777-19.943-51.777-62.515v-64.435z"/>
                <path d="M379.121 304.501h36.819c37.97 0 64.05 17.643 64.05 61.75 0 44.105-26.08 62.899-62.132 62.899h-38.737v-124.649zm34.901 98.185c18.027 0 32.218-7.286 32.218-36.435s-14.191-35.286-32.218-35.286h-1.916v71.721h1.916z"/>
                <path d="M532.549 273.92h35.235v155.23h-35.235v-155.23z"/>
                <path d="M584.442 273.92h56.663c33.808 0 60.712 12.381 60.712 49.998 0 36.427-27.856 52.615-60.712 52.615h-21.427v52.617h-35.236v-155.23zm54.521 74.759c19.285 0 28.569-8.571 28.569-24.761 0-16.19-9.998-22.142-28.569-22.142h-19.285v46.903h19.285z"/>
        </g>
</g>
</svg>
