<svg fill="#ffc80f" height="36" width="36" viewBox="0 0 24 24" xmlns="http://www.w3.org/2000/svg">
	<path d="M0 0h24v24H0z" fill="none"/>
	<path d="M12 3.333c-4.786 0-8.667 3.88-8.667 8.667 0 4.786 3.88 8.667 8.667 8.667 4.786 0 8.667-3.88 8.667-8.667 0-4.786-3.88-8.667-8.667-8.667zm-.02 2.542c2.034 0 3.687 1.652 3.687 3.688 0 .81-.32 1.55-.854 2.083l-.834.833c-.664.662-1.063 1.222-1.063 2.603h-1.854v-.458c0-1.018.42-1.936 1.083-2.604l1.146-1.166c.33-.33.54-.785.54-1.29 0-1.02-.835-1.835-1.853-1.835s-1.834.815-1.834 1.833H8.313c0-2.036 1.63-3.688 3.666-3.688zm-.917 11.063h1.854v1.833h-1.854V16.94z"/>
</svg>